<mxfile host="app.diagrams.net" modified="2020-10-10T16:21:52.490Z" agent="5.0 (X11)" etag="2xFGoJGtxZwOROVWaXoC" version="13.7.9" type="github">
  <diagram id="jCX3biEMH_KiPf_Mwoyk" name="Page-1">
    <mxGraphModel dx="1157" dy="641" grid="1" gridSize="10" guides="1" tooltips="1" connect="1" arrows="1" fold="1" page="1" pageScale="1" pageWidth="2339" pageHeight="3300" math="0" shadow="0">
      <root>
        <mxCell id="0" />
        <mxCell id="1" parent="0" />
        <mxCell id="fLM_c8r7COVLMNnQFtRv-1" value="tuple_of(2) : BlockOf(String) -&amp;gt; TupleOf(BlockOf(String), BlockOf(String))" style="text;html=1;align=center;verticalAlign=middle;resizable=0;points=[];autosize=1;" vertex="1" parent="1">
          <mxGeometry x="120" y="50" width="400" height="20" as="geometry" />
        </mxCell>
        <mxCell id="fLM_c8r7COVLMNnQFtRv-10" style="edgeStyle=orthogonalEdgeStyle;rounded=0;orthogonalLoop=1;jettySize=auto;html=1;exitX=0.25;exitY=1;exitDx=0;exitDy=0;" edge="1" parent="1" source="fLM_c8r7COVLMNnQFtRv-2" target="fLM_c8r7COVLMNnQFtRv-3">
          <mxGeometry relative="1" as="geometry" />
        </mxCell>
        <mxCell id="fLM_c8r7COVLMNnQFtRv-32" value="src" style="edgeLabel;html=1;align=center;verticalAlign=middle;resizable=0;points=[];" vertex="1" connectable="0" parent="fLM_c8r7COVLMNnQFtRv-10">
          <mxGeometry x="-0.1857" y="1" relative="1" as="geometry">
            <mxPoint x="-23" y="-11" as="offset" />
          </mxGeometry>
        </mxCell>
        <mxCell id="fLM_c8r7COVLMNnQFtRv-12" style="edgeStyle=orthogonalEdgeStyle;rounded=0;orthogonalLoop=1;jettySize=auto;html=1;exitX=0.75;exitY=1;exitDx=0;exitDy=0;entryX=0.5;entryY=0;entryDx=0;entryDy=0;" edge="1" parent="1" source="fLM_c8r7COVLMNnQFtRv-2" target="fLM_c8r7COVLMNnQFtRv-5">
          <mxGeometry relative="1" as="geometry" />
        </mxCell>
        <mxCell id="fLM_c8r7COVLMNnQFtRv-33" value="tgt" style="edgeLabel;html=1;align=center;verticalAlign=middle;resizable=0;points=[];" vertex="1" connectable="0" parent="fLM_c8r7COVLMNnQFtRv-12">
          <mxGeometry x="-0.1571" y="-3" relative="1" as="geometry">
            <mxPoint x="21" y="-13" as="offset" />
          </mxGeometry>
        </mxCell>
        <mxCell id="fLM_c8r7COVLMNnQFtRv-2" value="Signature" style="rounded=0;whiteSpace=wrap;html=1;fillColor=#ffe6cc;strokeColor=#d79b00;" vertex="1" parent="1">
          <mxGeometry x="240" y="120" width="80" height="40" as="geometry" />
        </mxCell>
        <mxCell id="fLM_c8r7COVLMNnQFtRv-11" style="edgeStyle=orthogonalEdgeStyle;rounded=0;orthogonalLoop=1;jettySize=auto;html=1;exitX=0.5;exitY=1;exitDx=0;exitDy=0;entryX=0.5;entryY=0;entryDx=0;entryDy=0;" edge="1" parent="1" source="fLM_c8r7COVLMNnQFtRv-3" target="fLM_c8r7COVLMNnQFtRv-4">
          <mxGeometry relative="1" as="geometry" />
        </mxCell>
        <mxCell id="fLM_c8r7COVLMNnQFtRv-3" value="BlockOf" style="rounded=0;whiteSpace=wrap;html=1;fillColor=#dae8fc;strokeColor=#6c8ebf;" vertex="1" parent="1">
          <mxGeometry x="120" y="200" width="80" height="40" as="geometry" />
        </mxCell>
        <mxCell id="fLM_c8r7COVLMNnQFtRv-4" value="String" style="rounded=0;whiteSpace=wrap;html=1;fillColor=#f5f5f5;strokeColor=#666666;fontColor=#333333;" vertex="1" parent="1">
          <mxGeometry x="120" y="280" width="80" height="40" as="geometry" />
        </mxCell>
        <mxCell id="fLM_c8r7COVLMNnQFtRv-13" style="edgeStyle=orthogonalEdgeStyle;rounded=0;orthogonalLoop=1;jettySize=auto;html=1;exitX=0.25;exitY=1;exitDx=0;exitDy=0;entryX=0.5;entryY=0;entryDx=0;entryDy=0;" edge="1" parent="1" source="fLM_c8r7COVLMNnQFtRv-5" target="fLM_c8r7COVLMNnQFtRv-6">
          <mxGeometry relative="1" as="geometry" />
        </mxCell>
        <mxCell id="fLM_c8r7COVLMNnQFtRv-16" style="edgeStyle=orthogonalEdgeStyle;rounded=0;orthogonalLoop=1;jettySize=auto;html=1;exitX=0.75;exitY=1;exitDx=0;exitDy=0;entryX=0.5;entryY=0;entryDx=0;entryDy=0;" edge="1" parent="1" source="fLM_c8r7COVLMNnQFtRv-5" target="fLM_c8r7COVLMNnQFtRv-8">
          <mxGeometry relative="1" as="geometry" />
        </mxCell>
        <mxCell id="fLM_c8r7COVLMNnQFtRv-5" value="TupleOf" style="rounded=0;whiteSpace=wrap;html=1;fillColor=#d5e8d4;strokeColor=#82b366;" vertex="1" parent="1">
          <mxGeometry x="360" y="200" width="80" height="40" as="geometry" />
        </mxCell>
        <mxCell id="fLM_c8r7COVLMNnQFtRv-14" style="edgeStyle=orthogonalEdgeStyle;rounded=0;orthogonalLoop=1;jettySize=auto;html=1;exitX=0.5;exitY=1;exitDx=0;exitDy=0;entryX=0.5;entryY=0;entryDx=0;entryDy=0;" edge="1" parent="1" source="fLM_c8r7COVLMNnQFtRv-6" target="fLM_c8r7COVLMNnQFtRv-7">
          <mxGeometry relative="1" as="geometry" />
        </mxCell>
        <mxCell id="fLM_c8r7COVLMNnQFtRv-6" value="BlockOf" style="rounded=0;whiteSpace=wrap;html=1;fillColor=#dae8fc;strokeColor=#6c8ebf;" vertex="1" parent="1">
          <mxGeometry x="280" y="280" width="80" height="40" as="geometry" />
        </mxCell>
        <mxCell id="fLM_c8r7COVLMNnQFtRv-7" value="String" style="rounded=0;whiteSpace=wrap;html=1;fillColor=#f5f5f5;strokeColor=#666666;fontColor=#333333;" vertex="1" parent="1">
          <mxGeometry x="280" y="360" width="80" height="40" as="geometry" />
        </mxCell>
        <mxCell id="fLM_c8r7COVLMNnQFtRv-15" style="edgeStyle=orthogonalEdgeStyle;rounded=0;orthogonalLoop=1;jettySize=auto;html=1;exitX=0.5;exitY=1;exitDx=0;exitDy=0;entryX=0.5;entryY=0;entryDx=0;entryDy=0;" edge="1" parent="1" source="fLM_c8r7COVLMNnQFtRv-8" target="fLM_c8r7COVLMNnQFtRv-9">
          <mxGeometry relative="1" as="geometry" />
        </mxCell>
        <mxCell id="fLM_c8r7COVLMNnQFtRv-8" value="BlockOf" style="rounded=0;whiteSpace=wrap;html=1;fillColor=#dae8fc;strokeColor=#6c8ebf;" vertex="1" parent="1">
          <mxGeometry x="440" y="280" width="80" height="40" as="geometry" />
        </mxCell>
        <mxCell id="fLM_c8r7COVLMNnQFtRv-9" value="String" style="rounded=0;whiteSpace=wrap;html=1;fillColor=#f5f5f5;strokeColor=#666666;fontColor=#333333;" vertex="1" parent="1">
          <mxGeometry x="440" y="360" width="80" height="40" as="geometry" />
        </mxCell>
        <mxCell id="fLM_c8r7COVLMNnQFtRv-17" style="edgeStyle=orthogonalEdgeStyle;rounded=0;orthogonalLoop=1;jettySize=auto;html=1;exitX=0.25;exitY=1;exitDx=0;exitDy=0;" edge="1" parent="1" source="fLM_c8r7COVLMNnQFtRv-19" target="fLM_c8r7COVLMNnQFtRv-21">
          <mxGeometry relative="1" as="geometry" />
        </mxCell>
        <mxCell id="fLM_c8r7COVLMNnQFtRv-18" style="edgeStyle=orthogonalEdgeStyle;rounded=0;orthogonalLoop=1;jettySize=auto;html=1;exitX=0.75;exitY=1;exitDx=0;exitDy=0;entryX=0.5;entryY=0;entryDx=0;entryDy=0;" edge="1" parent="1" source="fLM_c8r7COVLMNnQFtRv-19" target="fLM_c8r7COVLMNnQFtRv-25">
          <mxGeometry relative="1" as="geometry" />
        </mxCell>
        <mxCell id="fLM_c8r7COVLMNnQFtRv-19" value="Signature" style="rounded=0;whiteSpace=wrap;html=1;fillColor=#ffe6cc;strokeColor=#d79b00;" vertex="1" parent="1">
          <mxGeometry x="720" y="120" width="80" height="40" as="geometry" />
        </mxCell>
        <mxCell id="fLM_c8r7COVLMNnQFtRv-21" value="Pass(1)" style="rounded=0;whiteSpace=wrap;html=1;fillColor=#e1d5e7;strokeColor=#9673a6;" vertex="1" parent="1">
          <mxGeometry x="600" y="200" width="80" height="40" as="geometry" />
        </mxCell>
        <mxCell id="fLM_c8r7COVLMNnQFtRv-23" style="edgeStyle=orthogonalEdgeStyle;rounded=0;orthogonalLoop=1;jettySize=auto;html=1;exitX=0.25;exitY=1;exitDx=0;exitDy=0;entryX=0.5;entryY=0;entryDx=0;entryDy=0;" edge="1" parent="1" source="fLM_c8r7COVLMNnQFtRv-25" target="fLM_c8r7COVLMNnQFtRv-27">
          <mxGeometry relative="1" as="geometry" />
        </mxCell>
        <mxCell id="fLM_c8r7COVLMNnQFtRv-24" style="edgeStyle=orthogonalEdgeStyle;rounded=0;orthogonalLoop=1;jettySize=auto;html=1;exitX=0.75;exitY=1;exitDx=0;exitDy=0;entryX=0.5;entryY=0;entryDx=0;entryDy=0;" edge="1" parent="1" source="fLM_c8r7COVLMNnQFtRv-25" target="fLM_c8r7COVLMNnQFtRv-30">
          <mxGeometry relative="1" as="geometry" />
        </mxCell>
        <mxCell id="fLM_c8r7COVLMNnQFtRv-25" value="TupleOf" style="rounded=0;whiteSpace=wrap;html=1;fillColor=#d5e8d4;strokeColor=#82b366;" vertex="1" parent="1">
          <mxGeometry x="840" y="200" width="80" height="40" as="geometry" />
        </mxCell>
        <mxCell id="fLM_c8r7COVLMNnQFtRv-27" value="Pass(1)" style="rounded=0;whiteSpace=wrap;html=1;fillColor=#e1d5e7;strokeColor=#9673a6;" vertex="1" parent="1">
          <mxGeometry x="760" y="280" width="80" height="40" as="geometry" />
        </mxCell>
        <mxCell id="fLM_c8r7COVLMNnQFtRv-30" value="Pass(1)" style="rounded=0;whiteSpace=wrap;html=1;fillColor=#e1d5e7;strokeColor=#9673a6;" vertex="1" parent="1">
          <mxGeometry x="920" y="280" width="80" height="40" as="geometry" />
        </mxCell>
        <mxCell id="fLM_c8r7COVLMNnQFtRv-34" value="distribute(2) : TupleOf(BlockOf(String), BlockOf(String)) -&amp;gt; BlockOf(TupleOf(BlockOf(String), String))" style="text;html=1;align=center;verticalAlign=middle;resizable=0;points=[];autosize=1;" vertex="1" parent="1">
          <mxGeometry x="120" y="460" width="540" height="20" as="geometry" />
        </mxCell>
        <mxCell id="fLM_c8r7COVLMNnQFtRv-35" style="edgeStyle=orthogonalEdgeStyle;rounded=0;orthogonalLoop=1;jettySize=auto;html=1;exitX=0.25;exitY=1;exitDx=0;exitDy=0;entryX=0.5;entryY=0;entryDx=0;entryDy=0;" edge="1" parent="1" source="fLM_c8r7COVLMNnQFtRv-39" target="fLM_c8r7COVLMNnQFtRv-45">
          <mxGeometry relative="1" as="geometry">
            <mxPoint x="280.0588235294117" y="600" as="targetPoint" />
          </mxGeometry>
        </mxCell>
        <mxCell id="fLM_c8r7COVLMNnQFtRv-36" value="src" style="edgeLabel;html=1;align=center;verticalAlign=middle;resizable=0;points=[];" vertex="1" connectable="0" parent="fLM_c8r7COVLMNnQFtRv-35">
          <mxGeometry x="-0.1857" y="1" relative="1" as="geometry">
            <mxPoint x="-23" y="-11" as="offset" />
          </mxGeometry>
        </mxCell>
        <mxCell id="fLM_c8r7COVLMNnQFtRv-37" style="edgeStyle=orthogonalEdgeStyle;rounded=0;orthogonalLoop=1;jettySize=auto;html=1;exitX=0.75;exitY=1;exitDx=0;exitDy=0;entryX=0.5;entryY=0;entryDx=0;entryDy=0;" edge="1" parent="1" source="fLM_c8r7COVLMNnQFtRv-39" target="fLM_c8r7COVLMNnQFtRv-52">
          <mxGeometry relative="1" as="geometry">
            <mxPoint x="550" y="590" as="targetPoint" />
          </mxGeometry>
        </mxCell>
        <mxCell id="fLM_c8r7COVLMNnQFtRv-38" value="tgt" style="edgeLabel;html=1;align=center;verticalAlign=middle;resizable=0;points=[];" vertex="1" connectable="0" parent="fLM_c8r7COVLMNnQFtRv-37">
          <mxGeometry x="-0.1571" y="-3" relative="1" as="geometry">
            <mxPoint x="21" y="-13" as="offset" />
          </mxGeometry>
        </mxCell>
        <mxCell id="fLM_c8r7COVLMNnQFtRv-39" value="Signature" style="rounded=0;whiteSpace=wrap;html=1;fillColor=#ffe6cc;strokeColor=#d79b00;" vertex="1" parent="1">
          <mxGeometry x="360" y="520" width="80" height="40" as="geometry" />
        </mxCell>
        <mxCell id="fLM_c8r7COVLMNnQFtRv-43" style="edgeStyle=orthogonalEdgeStyle;rounded=0;orthogonalLoop=1;jettySize=auto;html=1;exitX=0.25;exitY=1;exitDx=0;exitDy=0;entryX=0.5;entryY=0;entryDx=0;entryDy=0;" edge="1" parent="1" source="fLM_c8r7COVLMNnQFtRv-45" target="fLM_c8r7COVLMNnQFtRv-47">
          <mxGeometry relative="1" as="geometry" />
        </mxCell>
        <mxCell id="fLM_c8r7COVLMNnQFtRv-44" style="edgeStyle=orthogonalEdgeStyle;rounded=0;orthogonalLoop=1;jettySize=auto;html=1;exitX=0.75;exitY=1;exitDx=0;exitDy=0;entryX=0.5;entryY=0;entryDx=0;entryDy=0;" edge="1" parent="1" source="fLM_c8r7COVLMNnQFtRv-45" target="fLM_c8r7COVLMNnQFtRv-50">
          <mxGeometry relative="1" as="geometry" />
        </mxCell>
        <mxCell id="fLM_c8r7COVLMNnQFtRv-45" value="TupleOf" style="rounded=0;whiteSpace=wrap;html=1;fillColor=#d5e8d4;strokeColor=#82b366;" vertex="1" parent="1">
          <mxGeometry x="240" y="600" width="80" height="40" as="geometry" />
        </mxCell>
        <mxCell id="fLM_c8r7COVLMNnQFtRv-46" style="edgeStyle=orthogonalEdgeStyle;rounded=0;orthogonalLoop=1;jettySize=auto;html=1;exitX=0.5;exitY=1;exitDx=0;exitDy=0;entryX=0.5;entryY=0;entryDx=0;entryDy=0;" edge="1" parent="1" source="fLM_c8r7COVLMNnQFtRv-47" target="fLM_c8r7COVLMNnQFtRv-48">
          <mxGeometry relative="1" as="geometry" />
        </mxCell>
        <mxCell id="fLM_c8r7COVLMNnQFtRv-47" value="BlockOf" style="rounded=0;whiteSpace=wrap;html=1;fillColor=#dae8fc;strokeColor=#6c8ebf;" vertex="1" parent="1">
          <mxGeometry x="160" y="680" width="80" height="40" as="geometry" />
        </mxCell>
        <mxCell id="fLM_c8r7COVLMNnQFtRv-48" value="String" style="rounded=0;whiteSpace=wrap;html=1;fillColor=#f5f5f5;strokeColor=#666666;fontColor=#333333;" vertex="1" parent="1">
          <mxGeometry x="160" y="760" width="80" height="40" as="geometry" />
        </mxCell>
        <mxCell id="fLM_c8r7COVLMNnQFtRv-49" style="edgeStyle=orthogonalEdgeStyle;rounded=0;orthogonalLoop=1;jettySize=auto;html=1;exitX=0.5;exitY=1;exitDx=0;exitDy=0;entryX=0.5;entryY=0;entryDx=0;entryDy=0;" edge="1" parent="1" source="fLM_c8r7COVLMNnQFtRv-50" target="fLM_c8r7COVLMNnQFtRv-51">
          <mxGeometry relative="1" as="geometry" />
        </mxCell>
        <mxCell id="fLM_c8r7COVLMNnQFtRv-50" value="BlockOf" style="rounded=0;whiteSpace=wrap;html=1;fillColor=#dae8fc;strokeColor=#6c8ebf;" vertex="1" parent="1">
          <mxGeometry x="320" y="680" width="80" height="40" as="geometry" />
        </mxCell>
        <mxCell id="fLM_c8r7COVLMNnQFtRv-51" value="String" style="rounded=0;whiteSpace=wrap;html=1;fillColor=#f5f5f5;strokeColor=#666666;fontColor=#333333;" vertex="1" parent="1">
          <mxGeometry x="320" y="760" width="80" height="40" as="geometry" />
        </mxCell>
        <mxCell id="fLM_c8r7COVLMNnQFtRv-62" style="edgeStyle=orthogonalEdgeStyle;rounded=0;orthogonalLoop=1;jettySize=auto;html=1;exitX=0.5;exitY=1;exitDx=0;exitDy=0;entryX=0.5;entryY=0;entryDx=0;entryDy=0;" edge="1" parent="1" source="fLM_c8r7COVLMNnQFtRv-52" target="fLM_c8r7COVLMNnQFtRv-55">
          <mxGeometry relative="1" as="geometry" />
        </mxCell>
        <mxCell id="fLM_c8r7COVLMNnQFtRv-52" value="BlockOf" style="rounded=0;whiteSpace=wrap;html=1;fillColor=#dae8fc;strokeColor=#6c8ebf;" vertex="1" parent="1">
          <mxGeometry x="520" y="600" width="80" height="40" as="geometry" />
        </mxCell>
        <mxCell id="fLM_c8r7COVLMNnQFtRv-53" style="edgeStyle=orthogonalEdgeStyle;rounded=0;orthogonalLoop=1;jettySize=auto;html=1;exitX=0.25;exitY=1;exitDx=0;exitDy=0;entryX=0.5;entryY=0;entryDx=0;entryDy=0;" edge="1" parent="1" source="fLM_c8r7COVLMNnQFtRv-55" target="fLM_c8r7COVLMNnQFtRv-57">
          <mxGeometry relative="1" as="geometry" />
        </mxCell>
        <mxCell id="fLM_c8r7COVLMNnQFtRv-54" style="edgeStyle=orthogonalEdgeStyle;rounded=0;orthogonalLoop=1;jettySize=auto;html=1;exitX=0.75;exitY=1;exitDx=0;exitDy=0;entryX=0.5;entryY=0;entryDx=0;entryDy=0;" edge="1" parent="1" source="fLM_c8r7COVLMNnQFtRv-55" target="fLM_c8r7COVLMNnQFtRv-61">
          <mxGeometry relative="1" as="geometry">
            <mxPoint x="640" y="760" as="targetPoint" />
          </mxGeometry>
        </mxCell>
        <mxCell id="fLM_c8r7COVLMNnQFtRv-55" value="TupleOf" style="rounded=0;whiteSpace=wrap;html=1;fillColor=#d5e8d4;strokeColor=#82b366;" vertex="1" parent="1">
          <mxGeometry x="520" y="680" width="80" height="40" as="geometry" />
        </mxCell>
        <mxCell id="fLM_c8r7COVLMNnQFtRv-56" style="edgeStyle=orthogonalEdgeStyle;rounded=0;orthogonalLoop=1;jettySize=auto;html=1;exitX=0.5;exitY=1;exitDx=0;exitDy=0;entryX=0.5;entryY=0;entryDx=0;entryDy=0;" edge="1" parent="1" source="fLM_c8r7COVLMNnQFtRv-57" target="fLM_c8r7COVLMNnQFtRv-58">
          <mxGeometry relative="1" as="geometry" />
        </mxCell>
        <mxCell id="fLM_c8r7COVLMNnQFtRv-57" value="BlockOf" style="rounded=0;whiteSpace=wrap;html=1;fillColor=#dae8fc;strokeColor=#6c8ebf;" vertex="1" parent="1">
          <mxGeometry x="440" y="760" width="80" height="40" as="geometry" />
        </mxCell>
        <mxCell id="fLM_c8r7COVLMNnQFtRv-58" value="String" style="rounded=0;whiteSpace=wrap;html=1;fillColor=#f5f5f5;strokeColor=#666666;fontColor=#333333;" vertex="1" parent="1">
          <mxGeometry x="440" y="840" width="80" height="40" as="geometry" />
        </mxCell>
        <mxCell id="fLM_c8r7COVLMNnQFtRv-61" value="String" style="rounded=0;whiteSpace=wrap;html=1;fillColor=#f5f5f5;strokeColor=#666666;fontColor=#333333;" vertex="1" parent="1">
          <mxGeometry x="600" y="760" width="80" height="40" as="geometry" />
        </mxCell>
        <mxCell id="fLM_c8r7COVLMNnQFtRv-63" style="edgeStyle=orthogonalEdgeStyle;rounded=0;orthogonalLoop=1;jettySize=auto;html=1;exitX=0.25;exitY=1;exitDx=0;exitDy=0;entryX=0.5;entryY=0;entryDx=0;entryDy=0;" edge="1" parent="1" source="fLM_c8r7COVLMNnQFtRv-67" target="fLM_c8r7COVLMNnQFtRv-70">
          <mxGeometry relative="1" as="geometry">
            <mxPoint x="880.0588235294117" y="600" as="targetPoint" />
          </mxGeometry>
        </mxCell>
        <mxCell id="fLM_c8r7COVLMNnQFtRv-64" value="src" style="edgeLabel;html=1;align=center;verticalAlign=middle;resizable=0;points=[];" vertex="1" connectable="0" parent="fLM_c8r7COVLMNnQFtRv-63">
          <mxGeometry x="-0.1857" y="1" relative="1" as="geometry">
            <mxPoint x="-23" y="-11" as="offset" />
          </mxGeometry>
        </mxCell>
        <mxCell id="fLM_c8r7COVLMNnQFtRv-65" style="edgeStyle=orthogonalEdgeStyle;rounded=0;orthogonalLoop=1;jettySize=auto;html=1;exitX=0.75;exitY=1;exitDx=0;exitDy=0;entryX=0.5;entryY=0;entryDx=0;entryDy=0;" edge="1" parent="1" source="fLM_c8r7COVLMNnQFtRv-67" target="fLM_c8r7COVLMNnQFtRv-78">
          <mxGeometry relative="1" as="geometry">
            <mxPoint x="1150" y="590" as="targetPoint" />
          </mxGeometry>
        </mxCell>
        <mxCell id="fLM_c8r7COVLMNnQFtRv-66" value="tgt" style="edgeLabel;html=1;align=center;verticalAlign=middle;resizable=0;points=[];" vertex="1" connectable="0" parent="fLM_c8r7COVLMNnQFtRv-65">
          <mxGeometry x="-0.1571" y="-3" relative="1" as="geometry">
            <mxPoint x="21" y="-13" as="offset" />
          </mxGeometry>
        </mxCell>
        <mxCell id="fLM_c8r7COVLMNnQFtRv-67" value="Signature" style="rounded=0;whiteSpace=wrap;html=1;fillColor=#ffe6cc;strokeColor=#d79b00;" vertex="1" parent="1">
          <mxGeometry x="960" y="520" width="80" height="40" as="geometry" />
        </mxCell>
        <mxCell id="fLM_c8r7COVLMNnQFtRv-68" style="edgeStyle=orthogonalEdgeStyle;rounded=0;orthogonalLoop=1;jettySize=auto;html=1;exitX=0.25;exitY=1;exitDx=0;exitDy=0;entryX=0.5;entryY=0;entryDx=0;entryDy=0;" edge="1" parent="1" source="fLM_c8r7COVLMNnQFtRv-70" target="fLM_c8r7COVLMNnQFtRv-72">
          <mxGeometry relative="1" as="geometry" />
        </mxCell>
        <mxCell id="fLM_c8r7COVLMNnQFtRv-69" style="edgeStyle=orthogonalEdgeStyle;rounded=0;orthogonalLoop=1;jettySize=auto;html=1;exitX=0.75;exitY=1;exitDx=0;exitDy=0;entryX=0.5;entryY=0;entryDx=0;entryDy=0;" edge="1" parent="1" source="fLM_c8r7COVLMNnQFtRv-70" target="fLM_c8r7COVLMNnQFtRv-75">
          <mxGeometry relative="1" as="geometry" />
        </mxCell>
        <mxCell id="fLM_c8r7COVLMNnQFtRv-70" value="TupleOf" style="rounded=0;whiteSpace=wrap;html=1;fillColor=#d5e8d4;strokeColor=#82b366;" vertex="1" parent="1">
          <mxGeometry x="840" y="600" width="80" height="40" as="geometry" />
        </mxCell>
        <mxCell id="fLM_c8r7COVLMNnQFtRv-72" value="Pass(1)" style="rounded=0;whiteSpace=wrap;html=1;fillColor=#e1d5e7;strokeColor=#9673a6;" vertex="1" parent="1">
          <mxGeometry x="760" y="680" width="80" height="40" as="geometry" />
        </mxCell>
        <mxCell id="fLM_c8r7COVLMNnQFtRv-74" style="edgeStyle=orthogonalEdgeStyle;rounded=0;orthogonalLoop=1;jettySize=auto;html=1;exitX=0.5;exitY=1;exitDx=0;exitDy=0;entryX=0.5;entryY=0;entryDx=0;entryDy=0;" edge="1" parent="1" source="fLM_c8r7COVLMNnQFtRv-75" target="fLM_c8r7COVLMNnQFtRv-76">
          <mxGeometry relative="1" as="geometry" />
        </mxCell>
        <mxCell id="fLM_c8r7COVLMNnQFtRv-75" value="BlockOf" style="rounded=0;whiteSpace=wrap;html=1;fillColor=#dae8fc;strokeColor=#6c8ebf;" vertex="1" parent="1">
          <mxGeometry x="920" y="680" width="80" height="40" as="geometry" />
        </mxCell>
        <mxCell id="fLM_c8r7COVLMNnQFtRv-76" value="Pass(2)" style="rounded=0;whiteSpace=wrap;html=1;fillColor=#e1d5e7;strokeColor=#9673a6;" vertex="1" parent="1">
          <mxGeometry x="920" y="760" width="80" height="40" as="geometry" />
        </mxCell>
        <mxCell id="fLM_c8r7COVLMNnQFtRv-77" style="edgeStyle=orthogonalEdgeStyle;rounded=0;orthogonalLoop=1;jettySize=auto;html=1;exitX=0.5;exitY=1;exitDx=0;exitDy=0;entryX=0.5;entryY=0;entryDx=0;entryDy=0;" edge="1" parent="1" source="fLM_c8r7COVLMNnQFtRv-78" target="fLM_c8r7COVLMNnQFtRv-81">
          <mxGeometry relative="1" as="geometry" />
        </mxCell>
        <mxCell id="fLM_c8r7COVLMNnQFtRv-78" value="BlockOf" style="rounded=0;whiteSpace=wrap;html=1;fillColor=#dae8fc;strokeColor=#6c8ebf;" vertex="1" parent="1">
          <mxGeometry x="1120" y="600" width="80" height="40" as="geometry" />
        </mxCell>
        <mxCell id="fLM_c8r7COVLMNnQFtRv-79" style="edgeStyle=orthogonalEdgeStyle;rounded=0;orthogonalLoop=1;jettySize=auto;html=1;exitX=0.25;exitY=1;exitDx=0;exitDy=0;entryX=0.5;entryY=0;entryDx=0;entryDy=0;" edge="1" parent="1" source="fLM_c8r7COVLMNnQFtRv-81" target="fLM_c8r7COVLMNnQFtRv-83">
          <mxGeometry relative="1" as="geometry" />
        </mxCell>
        <mxCell id="fLM_c8r7COVLMNnQFtRv-80" style="edgeStyle=orthogonalEdgeStyle;rounded=0;orthogonalLoop=1;jettySize=auto;html=1;exitX=0.75;exitY=1;exitDx=0;exitDy=0;entryX=0.5;entryY=0;entryDx=0;entryDy=0;" edge="1" parent="1" source="fLM_c8r7COVLMNnQFtRv-81" target="fLM_c8r7COVLMNnQFtRv-85">
          <mxGeometry relative="1" as="geometry">
            <mxPoint x="1240" y="760" as="targetPoint" />
          </mxGeometry>
        </mxCell>
        <mxCell id="fLM_c8r7COVLMNnQFtRv-81" value="TupleOf" style="rounded=0;whiteSpace=wrap;html=1;fillColor=#d5e8d4;strokeColor=#82b366;" vertex="1" parent="1">
          <mxGeometry x="1120" y="680" width="80" height="40" as="geometry" />
        </mxCell>
        <mxCell id="fLM_c8r7COVLMNnQFtRv-83" value="Pass(1)" style="rounded=0;whiteSpace=wrap;html=1;fillColor=#e1d5e7;strokeColor=#9673a6;" vertex="1" parent="1">
          <mxGeometry x="1040" y="760" width="80" height="40" as="geometry" />
        </mxCell>
        <mxCell id="fLM_c8r7COVLMNnQFtRv-85" value="Pass(2)" style="rounded=0;whiteSpace=wrap;html=1;fillColor=#e1d5e7;strokeColor=#9673a6;" vertex="1" parent="1">
          <mxGeometry x="1200" y="760" width="80" height="40" as="geometry" />
        </mxCell>
        <mxCell id="fLM_c8r7COVLMNnQFtRv-86" style="edgeStyle=orthogonalEdgeStyle;rounded=0;orthogonalLoop=1;jettySize=auto;html=1;exitX=0.25;exitY=1;exitDx=0;exitDy=0;entryX=0.5;entryY=0;entryDx=0;entryDy=0;" edge="1" parent="1" source="fLM_c8r7COVLMNnQFtRv-90" target="fLM_c8r7COVLMNnQFtRv-93">
          <mxGeometry relative="1" as="geometry">
            <mxPoint x="600.0588235294117" y="1040" as="targetPoint" />
          </mxGeometry>
        </mxCell>
        <mxCell id="fLM_c8r7COVLMNnQFtRv-87" value="src" style="edgeLabel;html=1;align=center;verticalAlign=middle;resizable=0;points=[];" vertex="1" connectable="0" parent="fLM_c8r7COVLMNnQFtRv-86">
          <mxGeometry x="-0.1857" y="1" relative="1" as="geometry">
            <mxPoint x="-23" y="-11" as="offset" />
          </mxGeometry>
        </mxCell>
        <mxCell id="fLM_c8r7COVLMNnQFtRv-88" style="edgeStyle=orthogonalEdgeStyle;rounded=0;orthogonalLoop=1;jettySize=auto;html=1;exitX=0.75;exitY=1;exitDx=0;exitDy=0;entryX=0.5;entryY=0;entryDx=0;entryDy=0;" edge="1" parent="1" source="fLM_c8r7COVLMNnQFtRv-90" target="fLM_c8r7COVLMNnQFtRv-99">
          <mxGeometry relative="1" as="geometry">
            <mxPoint x="870" y="1030" as="targetPoint" />
          </mxGeometry>
        </mxCell>
        <mxCell id="fLM_c8r7COVLMNnQFtRv-89" value="tgt" style="edgeLabel;html=1;align=center;verticalAlign=middle;resizable=0;points=[];" vertex="1" connectable="0" parent="fLM_c8r7COVLMNnQFtRv-88">
          <mxGeometry x="-0.1571" y="-3" relative="1" as="geometry">
            <mxPoint x="21" y="-13" as="offset" />
          </mxGeometry>
        </mxCell>
        <mxCell id="fLM_c8r7COVLMNnQFtRv-90" value="Signature" style="rounded=0;whiteSpace=wrap;html=1;fillColor=#ffe6cc;strokeColor=#d79b00;" vertex="1" parent="1">
          <mxGeometry x="680" y="960" width="80" height="40" as="geometry" />
        </mxCell>
        <mxCell id="fLM_c8r7COVLMNnQFtRv-91" style="edgeStyle=orthogonalEdgeStyle;rounded=0;orthogonalLoop=1;jettySize=auto;html=1;exitX=0.25;exitY=1;exitDx=0;exitDy=0;entryX=0.5;entryY=0;entryDx=0;entryDy=0;" edge="1" parent="1" source="fLM_c8r7COVLMNnQFtRv-93" target="fLM_c8r7COVLMNnQFtRv-94">
          <mxGeometry relative="1" as="geometry" />
        </mxCell>
        <mxCell id="fLM_c8r7COVLMNnQFtRv-92" style="edgeStyle=orthogonalEdgeStyle;rounded=0;orthogonalLoop=1;jettySize=auto;html=1;exitX=0.75;exitY=1;exitDx=0;exitDy=0;entryX=0.5;entryY=0;entryDx=0;entryDy=0;" edge="1" parent="1" source="fLM_c8r7COVLMNnQFtRv-93" target="fLM_c8r7COVLMNnQFtRv-96">
          <mxGeometry relative="1" as="geometry" />
        </mxCell>
        <mxCell id="fLM_c8r7COVLMNnQFtRv-93" value="TupleOf" style="rounded=0;whiteSpace=wrap;html=1;fillColor=#d5e8d4;strokeColor=#82b366;" vertex="1" parent="1">
          <mxGeometry x="560" y="1040" width="80" height="40" as="geometry" />
        </mxCell>
        <mxCell id="fLM_c8r7COVLMNnQFtRv-94" value="" style="rounded=0;whiteSpace=wrap;html=1;fillColor=#e1d5e7;strokeColor=#9673a6;" vertex="1" parent="1">
          <mxGeometry x="480" y="1120" width="80" height="40" as="geometry" />
        </mxCell>
        <mxCell id="fLM_c8r7COVLMNnQFtRv-95" style="edgeStyle=orthogonalEdgeStyle;rounded=0;orthogonalLoop=1;jettySize=auto;html=1;exitX=0.5;exitY=1;exitDx=0;exitDy=0;entryX=0.5;entryY=0;entryDx=0;entryDy=0;" edge="1" parent="1" source="fLM_c8r7COVLMNnQFtRv-96" target="fLM_c8r7COVLMNnQFtRv-97">
          <mxGeometry relative="1" as="geometry" />
        </mxCell>
        <mxCell id="fLM_c8r7COVLMNnQFtRv-96" value="BlockOf" style="rounded=0;whiteSpace=wrap;html=1;fillColor=#dae8fc;strokeColor=#6c8ebf;" vertex="1" parent="1">
          <mxGeometry x="640" y="1120" width="80" height="40" as="geometry" />
        </mxCell>
        <mxCell id="fLM_c8r7COVLMNnQFtRv-97" value="" style="rounded=0;whiteSpace=wrap;html=1;fillColor=#e1d5e7;strokeColor=#9673a6;" vertex="1" parent="1">
          <mxGeometry x="640" y="1200" width="80" height="40" as="geometry" />
        </mxCell>
        <mxCell id="fLM_c8r7COVLMNnQFtRv-98" style="edgeStyle=orthogonalEdgeStyle;rounded=0;orthogonalLoop=1;jettySize=auto;html=1;exitX=0.5;exitY=1;exitDx=0;exitDy=0;entryX=0.5;entryY=0;entryDx=0;entryDy=0;" edge="1" parent="1" source="fLM_c8r7COVLMNnQFtRv-99" target="fLM_c8r7COVLMNnQFtRv-102">
          <mxGeometry relative="1" as="geometry" />
        </mxCell>
        <mxCell id="fLM_c8r7COVLMNnQFtRv-99" value="BlockOf" style="rounded=0;whiteSpace=wrap;html=1;fillColor=#dae8fc;strokeColor=#6c8ebf;" vertex="1" parent="1">
          <mxGeometry x="840" y="1040" width="80" height="40" as="geometry" />
        </mxCell>
        <mxCell id="fLM_c8r7COVLMNnQFtRv-100" style="edgeStyle=orthogonalEdgeStyle;rounded=0;orthogonalLoop=1;jettySize=auto;html=1;exitX=0.25;exitY=1;exitDx=0;exitDy=0;entryX=0.5;entryY=0;entryDx=0;entryDy=0;" edge="1" parent="1" source="fLM_c8r7COVLMNnQFtRv-102" target="fLM_c8r7COVLMNnQFtRv-103">
          <mxGeometry relative="1" as="geometry" />
        </mxCell>
        <mxCell id="fLM_c8r7COVLMNnQFtRv-101" style="edgeStyle=orthogonalEdgeStyle;rounded=0;orthogonalLoop=1;jettySize=auto;html=1;exitX=0.75;exitY=1;exitDx=0;exitDy=0;entryX=0.5;entryY=0;entryDx=0;entryDy=0;" edge="1" parent="1" source="fLM_c8r7COVLMNnQFtRv-102" target="fLM_c8r7COVLMNnQFtRv-104">
          <mxGeometry relative="1" as="geometry">
            <mxPoint x="960" y="1200" as="targetPoint" />
          </mxGeometry>
        </mxCell>
        <mxCell id="fLM_c8r7COVLMNnQFtRv-102" value="TupleOf" style="rounded=0;whiteSpace=wrap;html=1;fillColor=#d5e8d4;strokeColor=#82b366;" vertex="1" parent="1">
          <mxGeometry x="840" y="1120" width="80" height="40" as="geometry" />
        </mxCell>
        <mxCell id="fLM_c8r7COVLMNnQFtRv-105" style="edgeStyle=orthogonalEdgeStyle;rounded=0;orthogonalLoop=1;jettySize=auto;html=1;entryX=0.5;entryY=1;entryDx=0;entryDy=0;curved=1;dashed=1;dashPattern=1 4;" edge="1" parent="1" source="fLM_c8r7COVLMNnQFtRv-103" target="fLM_c8r7COVLMNnQFtRv-94">
          <mxGeometry relative="1" as="geometry">
            <Array as="points">
              <mxPoint x="800" y="1280" />
              <mxPoint x="520" y="1280" />
            </Array>
          </mxGeometry>
        </mxCell>
        <mxCell id="fLM_c8r7COVLMNnQFtRv-103" value="" style="rounded=0;whiteSpace=wrap;html=1;fillColor=#e1d5e7;strokeColor=#9673a6;" vertex="1" parent="1">
          <mxGeometry x="760" y="1200" width="80" height="40" as="geometry" />
        </mxCell>
        <mxCell id="fLM_c8r7COVLMNnQFtRv-106" style="edgeStyle=orthogonalEdgeStyle;curved=1;rounded=0;orthogonalLoop=1;jettySize=auto;html=1;exitX=0.5;exitY=1;exitDx=0;exitDy=0;entryX=0.5;entryY=1;entryDx=0;entryDy=0;dashed=1;dashPattern=1 4;" edge="1" parent="1" source="fLM_c8r7COVLMNnQFtRv-104" target="fLM_c8r7COVLMNnQFtRv-97">
          <mxGeometry relative="1" as="geometry">
            <Array as="points">
              <mxPoint x="960" y="1310" />
              <mxPoint x="680" y="1310" />
            </Array>
          </mxGeometry>
        </mxCell>
        <mxCell id="fLM_c8r7COVLMNnQFtRv-104" value="" style="rounded=0;whiteSpace=wrap;html=1;fillColor=#e1d5e7;strokeColor=#9673a6;" vertex="1" parent="1">
          <mxGeometry x="920" y="1200" width="80" height="40" as="geometry" />
        </mxCell>
        <mxCell id="fLM_c8r7COVLMNnQFtRv-107" style="edgeStyle=orthogonalEdgeStyle;rounded=0;orthogonalLoop=1;jettySize=auto;html=1;exitX=0.25;exitY=1;exitDx=0;exitDy=0;" edge="1" parent="1" source="fLM_c8r7COVLMNnQFtRv-109" target="fLM_c8r7COVLMNnQFtRv-110">
          <mxGeometry relative="1" as="geometry" />
        </mxCell>
        <mxCell id="fLM_c8r7COVLMNnQFtRv-108" style="edgeStyle=orthogonalEdgeStyle;rounded=0;orthogonalLoop=1;jettySize=auto;html=1;exitX=0.75;exitY=1;exitDx=0;exitDy=0;entryX=0.5;entryY=0;entryDx=0;entryDy=0;" edge="1" parent="1" source="fLM_c8r7COVLMNnQFtRv-109" target="fLM_c8r7COVLMNnQFtRv-113">
          <mxGeometry relative="1" as="geometry" />
        </mxCell>
        <mxCell id="fLM_c8r7COVLMNnQFtRv-109" value="Signature" style="rounded=0;whiteSpace=wrap;html=1;fillColor=#ffe6cc;strokeColor=#d79b00;" vertex="1" parent="1">
          <mxGeometry x="1240" y="920" width="80" height="40" as="geometry" />
        </mxCell>
        <mxCell id="fLM_c8r7COVLMNnQFtRv-110" value="" style="rounded=0;whiteSpace=wrap;html=1;fillColor=#e1d5e7;strokeColor=#9673a6;" vertex="1" parent="1">
          <mxGeometry x="1120" y="1000" width="80" height="40" as="geometry" />
        </mxCell>
        <mxCell id="fLM_c8r7COVLMNnQFtRv-111" style="edgeStyle=orthogonalEdgeStyle;rounded=0;orthogonalLoop=1;jettySize=auto;html=1;exitX=0.25;exitY=1;exitDx=0;exitDy=0;entryX=0.5;entryY=0;entryDx=0;entryDy=0;" edge="1" parent="1" source="fLM_c8r7COVLMNnQFtRv-113" target="fLM_c8r7COVLMNnQFtRv-114">
          <mxGeometry relative="1" as="geometry" />
        </mxCell>
        <mxCell id="fLM_c8r7COVLMNnQFtRv-112" style="edgeStyle=orthogonalEdgeStyle;rounded=0;orthogonalLoop=1;jettySize=auto;html=1;exitX=0.75;exitY=1;exitDx=0;exitDy=0;entryX=0.5;entryY=0;entryDx=0;entryDy=0;" edge="1" parent="1" source="fLM_c8r7COVLMNnQFtRv-113" target="fLM_c8r7COVLMNnQFtRv-115">
          <mxGeometry relative="1" as="geometry" />
        </mxCell>
        <mxCell id="fLM_c8r7COVLMNnQFtRv-113" value="TupleOf" style="rounded=0;whiteSpace=wrap;html=1;fillColor=#d5e8d4;strokeColor=#82b366;" vertex="1" parent="1">
          <mxGeometry x="1360" y="1000" width="80" height="40" as="geometry" />
        </mxCell>
        <mxCell id="fLM_c8r7COVLMNnQFtRv-116" style="edgeStyle=orthogonalEdgeStyle;curved=1;rounded=0;orthogonalLoop=1;jettySize=auto;html=1;exitX=0.5;exitY=1;exitDx=0;exitDy=0;entryX=0.5;entryY=1;entryDx=0;entryDy=0;dashed=1;dashPattern=1 4;" edge="1" parent="1" source="fLM_c8r7COVLMNnQFtRv-114" target="fLM_c8r7COVLMNnQFtRv-110">
          <mxGeometry relative="1" as="geometry" />
        </mxCell>
        <mxCell id="fLM_c8r7COVLMNnQFtRv-114" value="" style="rounded=0;whiteSpace=wrap;html=1;fillColor=#e1d5e7;strokeColor=#9673a6;" vertex="1" parent="1">
          <mxGeometry x="1280" y="1080" width="80" height="40" as="geometry" />
        </mxCell>
        <mxCell id="fLM_c8r7COVLMNnQFtRv-117" style="edgeStyle=orthogonalEdgeStyle;curved=1;rounded=0;orthogonalLoop=1;jettySize=auto;html=1;exitX=0.5;exitY=1;exitDx=0;exitDy=0;dashed=1;dashPattern=1 4;" edge="1" parent="1" source="fLM_c8r7COVLMNnQFtRv-115">
          <mxGeometry relative="1" as="geometry">
            <mxPoint x="1160" y="1040" as="targetPoint" />
            <Array as="points">
              <mxPoint x="1480" y="1200" />
              <mxPoint x="1160" y="1200" />
            </Array>
          </mxGeometry>
        </mxCell>
        <mxCell id="fLM_c8r7COVLMNnQFtRv-115" value="" style="rounded=0;whiteSpace=wrap;html=1;fillColor=#e1d5e7;strokeColor=#9673a6;" vertex="1" parent="1">
          <mxGeometry x="1440" y="1080" width="80" height="40" as="geometry" />
        </mxCell>
        <mxCell id="fLM_c8r7COVLMNnQFtRv-118" style="edgeStyle=orthogonalEdgeStyle;rounded=0;orthogonalLoop=1;jettySize=auto;html=1;exitX=0.25;exitY=1;exitDx=0;exitDy=0;" edge="1" parent="1" source="fLM_c8r7COVLMNnQFtRv-120" target="fLM_c8r7COVLMNnQFtRv-121">
          <mxGeometry relative="1" as="geometry" />
        </mxCell>
        <mxCell id="fLM_c8r7COVLMNnQFtRv-119" style="edgeStyle=orthogonalEdgeStyle;rounded=0;orthogonalLoop=1;jettySize=auto;html=1;exitX=0.75;exitY=1;exitDx=0;exitDy=0;" edge="1" parent="1" source="fLM_c8r7COVLMNnQFtRv-120">
          <mxGeometry relative="1" as="geometry">
            <mxPoint x="1400" y="1320" as="targetPoint" />
          </mxGeometry>
        </mxCell>
        <mxCell id="fLM_c8r7COVLMNnQFtRv-120" value="Signature" style="rounded=0;whiteSpace=wrap;html=1;fillColor=#ffe6cc;strokeColor=#d79b00;" vertex="1" parent="1">
          <mxGeometry x="1240" y="1240" width="80" height="40" as="geometry" />
        </mxCell>
        <mxCell id="fLM_c8r7COVLMNnQFtRv-121" value="" style="rounded=0;whiteSpace=wrap;html=1;fillColor=#e1d5e7;strokeColor=#9673a6;" vertex="1" parent="1">
          <mxGeometry x="1120" y="1320" width="80" height="40" as="geometry" />
        </mxCell>
        <mxCell id="fLM_c8r7COVLMNnQFtRv-129" value="String" style="rounded=0;whiteSpace=wrap;html=1;fillColor=#f5f5f5;strokeColor=#666666;fontColor=#333333;" vertex="1" parent="1">
          <mxGeometry x="1360" y="1320" width="80" height="40" as="geometry" />
        </mxCell>
        <mxCell id="fLM_c8r7COVLMNnQFtRv-130" style="edgeStyle=orthogonalEdgeStyle;rounded=0;orthogonalLoop=1;jettySize=auto;html=1;exitX=0.25;exitY=1;exitDx=0;exitDy=0;entryX=0.5;entryY=0;entryDx=0;entryDy=0;" edge="1" parent="1" source="fLM_c8r7COVLMNnQFtRv-134" target="fLM_c8r7COVLMNnQFtRv-137">
          <mxGeometry relative="1" as="geometry">
            <mxPoint x="600.0588235294117" y="1440" as="targetPoint" />
          </mxGeometry>
        </mxCell>
        <mxCell id="fLM_c8r7COVLMNnQFtRv-131" value="src" style="edgeLabel;html=1;align=center;verticalAlign=middle;resizable=0;points=[];" vertex="1" connectable="0" parent="fLM_c8r7COVLMNnQFtRv-130">
          <mxGeometry x="-0.1857" y="1" relative="1" as="geometry">
            <mxPoint x="-23" y="-11" as="offset" />
          </mxGeometry>
        </mxCell>
        <mxCell id="fLM_c8r7COVLMNnQFtRv-132" style="edgeStyle=orthogonalEdgeStyle;rounded=0;orthogonalLoop=1;jettySize=auto;html=1;exitX=0.75;exitY=1;exitDx=0;exitDy=0;entryX=0.5;entryY=0;entryDx=0;entryDy=0;" edge="1" parent="1" source="fLM_c8r7COVLMNnQFtRv-134" target="fLM_c8r7COVLMNnQFtRv-151">
          <mxGeometry relative="1" as="geometry">
            <mxPoint x="910" y="1450" as="targetPoint" />
          </mxGeometry>
        </mxCell>
        <mxCell id="fLM_c8r7COVLMNnQFtRv-133" value="tgt" style="edgeLabel;html=1;align=center;verticalAlign=middle;resizable=0;points=[];" vertex="1" connectable="0" parent="fLM_c8r7COVLMNnQFtRv-132">
          <mxGeometry x="-0.1571" y="-3" relative="1" as="geometry">
            <mxPoint x="21" y="-13" as="offset" />
          </mxGeometry>
        </mxCell>
        <mxCell id="fLM_c8r7COVLMNnQFtRv-134" value="Signature" style="rounded=0;whiteSpace=wrap;html=1;fillColor=#ffe6cc;strokeColor=#d79b00;" vertex="1" parent="1">
          <mxGeometry x="680" y="1360" width="80" height="40" as="geometry" />
        </mxCell>
        <mxCell id="fLM_c8r7COVLMNnQFtRv-135" style="edgeStyle=orthogonalEdgeStyle;rounded=0;orthogonalLoop=1;jettySize=auto;html=1;exitX=0.25;exitY=1;exitDx=0;exitDy=0;entryX=0.5;entryY=0;entryDx=0;entryDy=0;" edge="1" parent="1" source="fLM_c8r7COVLMNnQFtRv-137" target="fLM_c8r7COVLMNnQFtRv-138">
          <mxGeometry relative="1" as="geometry" />
        </mxCell>
        <mxCell id="fLM_c8r7COVLMNnQFtRv-155" value="1" style="edgeLabel;html=1;align=center;verticalAlign=middle;resizable=0;points=[];fontSize=11;" vertex="1" connectable="0" parent="fLM_c8r7COVLMNnQFtRv-135">
          <mxGeometry x="0.2" y="3" relative="1" as="geometry">
            <mxPoint y="-13" as="offset" />
          </mxGeometry>
        </mxCell>
        <mxCell id="fLM_c8r7COVLMNnQFtRv-136" style="edgeStyle=orthogonalEdgeStyle;rounded=0;orthogonalLoop=1;jettySize=auto;html=1;exitX=0.75;exitY=1;exitDx=0;exitDy=0;entryX=0.5;entryY=0;entryDx=0;entryDy=0;" edge="1" parent="1" source="fLM_c8r7COVLMNnQFtRv-137" target="fLM_c8r7COVLMNnQFtRv-140">
          <mxGeometry relative="1" as="geometry">
            <Array as="points">
              <mxPoint x="620" y="1500" />
              <mxPoint x="680" y="1500" />
            </Array>
          </mxGeometry>
        </mxCell>
        <mxCell id="fLM_c8r7COVLMNnQFtRv-156" value="2" style="edgeLabel;html=1;align=center;verticalAlign=middle;resizable=0;points=[];fontSize=11;" vertex="1" connectable="0" parent="fLM_c8r7COVLMNnQFtRv-136">
          <mxGeometry x="0.18" y="-1" relative="1" as="geometry">
            <mxPoint y="-11" as="offset" />
          </mxGeometry>
        </mxCell>
        <mxCell id="fLM_c8r7COVLMNnQFtRv-137" value="TupleOf" style="rounded=0;whiteSpace=wrap;html=1;fillColor=#d5e8d4;strokeColor=#82b366;" vertex="1" parent="1">
          <mxGeometry x="560" y="1440" width="80" height="40" as="geometry" />
        </mxCell>
        <mxCell id="fLM_c8r7COVLMNnQFtRv-138" value="AnyShape" style="rounded=0;whiteSpace=wrap;html=1;fillColor=#f5f5f5;strokeColor=#666666;fontColor=#333333;" vertex="1" parent="1">
          <mxGeometry x="480" y="1520" width="80" height="40" as="geometry" />
        </mxCell>
        <mxCell id="fLM_c8r7COVLMNnQFtRv-139" value="1" style="edgeStyle=orthogonalEdgeStyle;rounded=0;orthogonalLoop=1;jettySize=auto;html=1;exitX=0.5;exitY=1;exitDx=0;exitDy=0;entryX=0.5;entryY=0;entryDx=0;entryDy=0;" edge="1" parent="1" source="fLM_c8r7COVLMNnQFtRv-140" target="fLM_c8r7COVLMNnQFtRv-141">
          <mxGeometry x="0.5" y="14" relative="1" as="geometry">
            <Array as="points">
              <mxPoint x="680" y="1590" />
              <mxPoint x="680" y="1590" />
            </Array>
            <mxPoint x="-4" y="-10" as="offset" />
          </mxGeometry>
        </mxCell>
        <mxCell id="fLM_c8r7COVLMNnQFtRv-140" value="BlockOf" style="rounded=0;whiteSpace=wrap;html=1;fillColor=#dae8fc;strokeColor=#6c8ebf;" vertex="1" parent="1">
          <mxGeometry x="640" y="1520" width="80" height="40" as="geometry" />
        </mxCell>
        <mxCell id="fLM_c8r7COVLMNnQFtRv-141" value="AnyShape" style="rounded=0;whiteSpace=wrap;html=1;fillColor=#f5f5f5;strokeColor=#666666;fontColor=#333333;" vertex="1" parent="1">
          <mxGeometry x="640" y="1600" width="80" height="40" as="geometry" />
        </mxCell>
        <mxCell id="fLM_c8r7COVLMNnQFtRv-142" style="edgeStyle=orthogonalEdgeStyle;rounded=0;orthogonalLoop=1;jettySize=auto;html=1;exitX=0.5;exitY=1;exitDx=0;exitDy=0;entryX=0.5;entryY=0;entryDx=0;entryDy=0;" edge="1" parent="1" source="fLM_c8r7COVLMNnQFtRv-143" target="fLM_c8r7COVLMNnQFtRv-146">
          <mxGeometry relative="1" as="geometry">
            <Array as="points">
              <mxPoint x="880" y="1580" />
              <mxPoint x="880" y="1580" />
            </Array>
          </mxGeometry>
        </mxCell>
        <mxCell id="fLM_c8r7COVLMNnQFtRv-157" value="1" style="edgeLabel;html=1;align=center;verticalAlign=middle;resizable=0;points=[];fontSize=11;" vertex="1" connectable="0" parent="fLM_c8r7COVLMNnQFtRv-142">
          <mxGeometry x="0.26" relative="1" as="geometry">
            <mxPoint x="10" y="-5.2" as="offset" />
          </mxGeometry>
        </mxCell>
        <mxCell id="fLM_c8r7COVLMNnQFtRv-143" value="BlockOf" style="rounded=0;whiteSpace=wrap;html=1;fillColor=#dae8fc;strokeColor=#6c8ebf;" vertex="1" parent="1">
          <mxGeometry x="840" y="1520" width="80" height="40" as="geometry" />
        </mxCell>
        <mxCell id="fLM_c8r7COVLMNnQFtRv-144" style="edgeStyle=orthogonalEdgeStyle;rounded=0;orthogonalLoop=1;jettySize=auto;html=1;exitX=0.25;exitY=1;exitDx=0;exitDy=0;entryX=0.5;entryY=0;entryDx=0;entryDy=0;" edge="1" parent="1" source="fLM_c8r7COVLMNnQFtRv-146" target="fLM_c8r7COVLMNnQFtRv-148">
          <mxGeometry relative="1" as="geometry" />
        </mxCell>
        <mxCell id="fLM_c8r7COVLMNnQFtRv-158" value="1" style="edgeLabel;html=1;align=center;verticalAlign=middle;resizable=0;points=[];fontSize=11;" vertex="1" connectable="0" parent="fLM_c8r7COVLMNnQFtRv-144">
          <mxGeometry x="0.104" relative="1" as="geometry">
            <mxPoint y="-10" as="offset" />
          </mxGeometry>
        </mxCell>
        <mxCell id="fLM_c8r7COVLMNnQFtRv-145" style="edgeStyle=orthogonalEdgeStyle;rounded=0;orthogonalLoop=1;jettySize=auto;html=1;exitX=0.75;exitY=1;exitDx=0;exitDy=0;entryX=0.5;entryY=0;entryDx=0;entryDy=0;" edge="1" parent="1" source="fLM_c8r7COVLMNnQFtRv-146" target="fLM_c8r7COVLMNnQFtRv-150">
          <mxGeometry relative="1" as="geometry">
            <mxPoint x="960" y="1680" as="targetPoint" />
          </mxGeometry>
        </mxCell>
        <mxCell id="fLM_c8r7COVLMNnQFtRv-159" value="2" style="edgeLabel;html=1;align=center;verticalAlign=middle;resizable=0;points=[];fontSize=11;" vertex="1" connectable="0" parent="fLM_c8r7COVLMNnQFtRv-145">
          <mxGeometry x="0.112" y="-1" relative="1" as="geometry">
            <mxPoint y="-11" as="offset" />
          </mxGeometry>
        </mxCell>
        <mxCell id="fLM_c8r7COVLMNnQFtRv-146" value="TupleOf" style="rounded=0;whiteSpace=wrap;html=1;fillColor=#d5e8d4;strokeColor=#82b366;" vertex="1" parent="1">
          <mxGeometry x="840" y="1600" width="80" height="40" as="geometry" />
        </mxCell>
        <mxCell id="fLM_c8r7COVLMNnQFtRv-147" style="edgeStyle=orthogonalEdgeStyle;rounded=0;orthogonalLoop=1;jettySize=auto;html=1;entryX=0.5;entryY=1;entryDx=0;entryDy=0;curved=1;dashed=1;dashPattern=1 4;" edge="1" parent="1" source="fLM_c8r7COVLMNnQFtRv-148" target="fLM_c8r7COVLMNnQFtRv-138">
          <mxGeometry relative="1" as="geometry">
            <Array as="points">
              <mxPoint x="800" y="1740" />
              <mxPoint x="520" y="1740" />
            </Array>
          </mxGeometry>
        </mxCell>
        <mxCell id="fLM_c8r7COVLMNnQFtRv-148" value="NoShape" style="rounded=0;whiteSpace=wrap;html=1;fillColor=#f5f5f5;strokeColor=#666666;fontColor=#333333;" vertex="1" parent="1">
          <mxGeometry x="760" y="1680" width="80" height="40" as="geometry" />
        </mxCell>
        <mxCell id="fLM_c8r7COVLMNnQFtRv-149" style="edgeStyle=orthogonalEdgeStyle;curved=1;rounded=0;orthogonalLoop=1;jettySize=auto;html=1;exitX=0.5;exitY=1;exitDx=0;exitDy=0;entryX=0.5;entryY=1;entryDx=0;entryDy=0;dashed=1;dashPattern=1 4;" edge="1" parent="1" source="fLM_c8r7COVLMNnQFtRv-150" target="fLM_c8r7COVLMNnQFtRv-141">
          <mxGeometry relative="1" as="geometry">
            <Array as="points">
              <mxPoint x="960" y="1750" />
              <mxPoint x="680" y="1750" />
            </Array>
          </mxGeometry>
        </mxCell>
        <mxCell id="fLM_c8r7COVLMNnQFtRv-150" value="NoShape" style="rounded=0;whiteSpace=wrap;html=1;fillColor=#f5f5f5;strokeColor=#666666;fontColor=#333333;" vertex="1" parent="1">
          <mxGeometry x="920" y="1680" width="80" height="40" as="geometry" />
        </mxCell>
        <mxCell id="fLM_c8r7COVLMNnQFtRv-152" style="edgeStyle=orthogonalEdgeStyle;rounded=0;orthogonalLoop=1;jettySize=auto;html=1;exitX=0.5;exitY=1;exitDx=0;exitDy=0;entryX=0.5;entryY=0;entryDx=0;entryDy=0;" edge="1" parent="1" source="fLM_c8r7COVLMNnQFtRv-151" target="fLM_c8r7COVLMNnQFtRv-143">
          <mxGeometry relative="1" as="geometry" />
        </mxCell>
        <mxCell id="fLM_c8r7COVLMNnQFtRv-153" style="edgeStyle=orthogonalEdgeStyle;rounded=0;orthogonalLoop=1;jettySize=auto;html=1;exitX=1;exitY=0.5;exitDx=0;exitDy=0;" edge="1" parent="1" source="fLM_c8r7COVLMNnQFtRv-151">
          <mxGeometry relative="1" as="geometry">
            <mxPoint x="960" y="1460.4285714285716" as="targetPoint" />
          </mxGeometry>
        </mxCell>
        <mxCell id="fLM_c8r7COVLMNnQFtRv-151" value="IsNatural(...)" style="rounded=0;whiteSpace=wrap;html=1;fillColor=#fff2cc;strokeColor=#d6b656;" vertex="1" parent="1">
          <mxGeometry x="840" y="1440" width="80" height="40" as="geometry" />
        </mxCell>
        <mxCell id="fLM_c8r7COVLMNnQFtRv-154" value="[1] -&amp;gt; [ [1, 1] ]&lt;br&gt;[2, 1] -&amp;gt; [ [1, 2] ]" style="text;html=1;align=left;verticalAlign=middle;resizable=0;points=[];autosize=1;fontSize=16;" vertex="1" parent="1">
          <mxGeometry x="960" y="1440" width="130" height="40" as="geometry" />
        </mxCell>
        <mxCell id="fLM_c8r7COVLMNnQFtRv-160" value="src" style="edgeLabel;html=1;align=center;verticalAlign=middle;resizable=0;points=[];" vertex="1" connectable="0" parent="1">
          <mxGeometry x="590.5883217991209" y="1730" as="geometry" />
        </mxCell>
        <mxCell id="fLM_c8r7COVLMNnQFtRv-161" style="edgeStyle=orthogonalEdgeStyle;rounded=0;orthogonalLoop=1;jettySize=auto;html=1;exitX=0.25;exitY=1;exitDx=0;exitDy=0;entryX=0.5;entryY=0;entryDx=0;entryDy=0;" edge="1" parent="1" source="fLM_c8r7COVLMNnQFtRv-163" target="fLM_c8r7COVLMNnQFtRv-165">
          <mxGeometry relative="1" as="geometry" />
        </mxCell>
        <mxCell id="fLM_c8r7COVLMNnQFtRv-162" style="edgeStyle=orthogonalEdgeStyle;rounded=0;orthogonalLoop=1;jettySize=auto;html=1;exitX=0.75;exitY=1;exitDx=0;exitDy=0;entryX=0.5;entryY=0;entryDx=0;entryDy=0;" edge="1" parent="1" source="fLM_c8r7COVLMNnQFtRv-163" target="fLM_c8r7COVLMNnQFtRv-168">
          <mxGeometry relative="1" as="geometry" />
        </mxCell>
        <mxCell id="fLM_c8r7COVLMNnQFtRv-163" value="TupleOf" style="rounded=0;whiteSpace=wrap;html=1;fillColor=#d5e8d4;strokeColor=#82b366;" vertex="1" parent="1">
          <mxGeometry x="510" y="1760" width="80" height="40" as="geometry" />
        </mxCell>
        <mxCell id="fLM_c8r7COVLMNnQFtRv-164" style="edgeStyle=orthogonalEdgeStyle;rounded=0;orthogonalLoop=1;jettySize=auto;html=1;exitX=0.5;exitY=1;exitDx=0;exitDy=0;entryX=0.5;entryY=0;entryDx=0;entryDy=0;" edge="1" parent="1" source="fLM_c8r7COVLMNnQFtRv-165" target="fLM_c8r7COVLMNnQFtRv-166">
          <mxGeometry relative="1" as="geometry" />
        </mxCell>
        <mxCell id="fLM_c8r7COVLMNnQFtRv-165" value="BlockOf" style="rounded=0;whiteSpace=wrap;html=1;fillColor=#dae8fc;strokeColor=#6c8ebf;" vertex="1" parent="1">
          <mxGeometry x="430" y="1840" width="80" height="40" as="geometry" />
        </mxCell>
        <mxCell id="fLM_c8r7COVLMNnQFtRv-166" value="String" style="rounded=0;whiteSpace=wrap;html=1;fillColor=#f5f5f5;strokeColor=#666666;fontColor=#333333;" vertex="1" parent="1">
          <mxGeometry x="430" y="1920" width="80" height="40" as="geometry" />
        </mxCell>
        <mxCell id="fLM_c8r7COVLMNnQFtRv-167" style="edgeStyle=orthogonalEdgeStyle;rounded=0;orthogonalLoop=1;jettySize=auto;html=1;exitX=0.5;exitY=1;exitDx=0;exitDy=0;entryX=0.5;entryY=0;entryDx=0;entryDy=0;" edge="1" parent="1" source="fLM_c8r7COVLMNnQFtRv-168" target="fLM_c8r7COVLMNnQFtRv-169">
          <mxGeometry relative="1" as="geometry" />
        </mxCell>
        <mxCell id="fLM_c8r7COVLMNnQFtRv-168" value="BlockOf" style="rounded=0;whiteSpace=wrap;html=1;fillColor=#dae8fc;strokeColor=#6c8ebf;" vertex="1" parent="1">
          <mxGeometry x="590" y="1840" width="80" height="40" as="geometry" />
        </mxCell>
        <mxCell id="fLM_c8r7COVLMNnQFtRv-169" value="String" style="rounded=0;whiteSpace=wrap;html=1;fillColor=#f5f5f5;strokeColor=#666666;fontColor=#333333;" vertex="1" parent="1">
          <mxGeometry x="590" y="1920" width="80" height="40" as="geometry" />
        </mxCell>
      </root>
    </mxGraphModel>
  </diagram>
</mxfile>
